HIERARCHY
ROOT mixamorig:Hips
{
	OFFSET -0.000008 104.274872 1.554316
	CHANNELS 6 Xposition Yposition Zposition Xrotation Yrotation Zrotation
	JOINT mixamorig:Spine
	{
		OFFSET -0.000005 10.181595 0.131519
		CHANNELS 6 Xposition Yposition Zposition Xrotation Yrotation Zrotation
		JOINT mixamorig:Spine1
		{
			OFFSET -0.000000 9.893959 -1.470707
			CHANNELS 6 Xposition Yposition Zposition Xrotation Yrotation Zrotation
			JOINT mixamorig:Spine2
			{
				OFFSET -0.000000 9.220757 -1.370641
				CHANNELS 6 Xposition Yposition Zposition Xrotation Yrotation Zrotation
				JOINT mixamorig:Neck
				{
					OFFSET 0.000001 16.740417 -2.049036
					CHANNELS 6 Xposition Yposition Zposition Xrotation Yrotation Zrotation
					JOINT mixamorig:Head
					{
						OFFSET 0.000000 9.617874 1.685006
						CHANNELS 6 Xposition Yposition Zposition Xrotation Yrotation Zrotation
						JOINT mixamorig:HeadTop_End
						{
							OFFSET 0.000002 22.037354 7.501101
							CHANNELS 6 Xposition Yposition Zposition Xrotation Yrotation Zrotation
							End Site
							{
								OFFSET 0.000168 2310.654297 -282.823242
							}
						}
					}
				}
				JOINT mixamorig:RightShoulder
				{
					OFFSET -4.569970 11.014908 -2.160885
					CHANNELS 6 Xposition Yposition Zposition Xrotation Yrotation Zrotation
					JOINT mixamorig:RightArm
					{
						OFFSET -10.592851 -0.524811 -2.232101
						CHANNELS 6 Xposition Yposition Zposition Xrotation Yrotation Zrotation
						JOINT mixamorig:RightForeArm
						{
							OFFSET -27.841511 0.000031 -0.000004
							CHANNELS 6 Xposition Yposition Zposition Xrotation Yrotation Zrotation
							JOINT mixamorig:RightHand
							{
								OFFSET -28.328831 -0.000015 0.000015
								CHANNELS 6 Xposition Yposition Zposition Xrotation Yrotation Zrotation
								JOINT mixamorig:RightHandThumb1
								{
									OFFSET -2.464806 -1.573990 2.681852
									CHANNELS 6 Xposition Yposition Zposition Xrotation Yrotation Zrotation
									JOINT mixamorig:RightHandThumb2
									{
										OFFSET -3.215179 -1.872803 1.924282
										CHANNELS 6 Xposition Yposition Zposition Xrotation Yrotation Zrotation
										JOINT mixamorig:RightHandThumb3
										{
											OFFSET -2.654831 -1.527969 1.512609
											CHANNELS 6 Xposition Yposition Zposition Xrotation Yrotation Zrotation
											JOINT mixamorig:RightHandThumb4
											{
												OFFSET -2.018814 -1.152008 1.108052
												CHANNELS 6 Xposition Yposition Zposition Xrotation Yrotation Zrotation
												End Site
												{
													OFFSET -188.809540 -114.533607 132.431396
												}
											}
										}
									}
								}
								JOINT mixamorig:RightHandIndex1
								{
									OFFSET -9.108284 -0.517868 2.259835
									CHANNELS 6 Xposition Yposition Zposition Xrotation Yrotation Zrotation
									JOINT mixamorig:RightHandIndex2
									{
										OFFSET -3.699989 0.000000 0.001215
										CHANNELS 6 Xposition Yposition Zposition Xrotation Yrotation Zrotation
										JOINT mixamorig:RightHandIndex3
										{
											OFFSET -2.850006 0.000031 -0.000522
											CHANNELS 6 Xposition Yposition Zposition Xrotation Yrotation Zrotation
											JOINT mixamorig:RightHandIndex4
											{
												OFFSET -2.772186 -0.000015 -0.000020
												CHANNELS 6 Xposition Yposition Zposition Xrotation Yrotation Zrotation
												End Site
												{
													OFFSET -277.218445 0.000000 -0.050231
												}
											}
										}
									}
								}
								JOINT mixamorig:RightHandMiddle1
								{
									OFFSET -9.532516 -0.000031 -0.000023
									CHANNELS 6 Xposition Yposition Zposition Xrotation Yrotation Zrotation
									JOINT mixamorig:RightHandMiddle2
									{
										OFFSET -3.700005 -0.000015 0.003713
										CHANNELS 6 Xposition Yposition Zposition Xrotation Yrotation Zrotation
										JOINT mixamorig:RightHandMiddle3
										{
											OFFSET -2.949974 0.000015 -0.002054
											CHANNELS 6 Xposition Yposition Zposition Xrotation Yrotation Zrotation
											JOINT mixamorig:RightHandMiddle4
											{
												OFFSET -2.946640 0.000000 -0.000156
												CHANNELS 6 Xposition Yposition Zposition Xrotation Yrotation Zrotation
												End Site
												{
													OFFSET -294.664337 0.000000 -0.113670
												}
											}
										}
									}
								}
								JOINT mixamorig:RightHandRing1
								{
									OFFSET -9.103600 -0.043076 -1.865134
									CHANNELS 6 Xposition Yposition Zposition Xrotation Yrotation Zrotation
									JOINT mixamorig:RightHandRing2
									{
										OFFSET -3.379288 0.000000 -0.001055
										CHANNELS 6 Xposition Yposition Zposition Xrotation Yrotation Zrotation
										JOINT mixamorig:RightHandRing3
										{
											OFFSET -2.889687 -0.000015 0.000379
											CHANNELS 6 Xposition Yposition Zposition Xrotation Yrotation Zrotation
											JOINT mixamorig:RightHandRing4
											{
												OFFSET -2.638809 -0.000015 0.000941
												CHANNELS 6 Xposition Yposition Zposition Xrotation Yrotation Zrotation
												End Site
												{
													OFFSET -263.880371 0.000000 0.516020
												}
											}
										}
									}
								}
								JOINT mixamorig:RightHandPinky1
								{
									OFFSET -8.076683 -0.486710 -3.806280
									CHANNELS 6 Xposition Yposition Zposition Xrotation Yrotation Zrotation
									JOINT mixamorig:RightHandPinky2
									{
										OFFSET -3.600014 -0.000015 -0.003747
										CHANNELS 6 Xposition Yposition Zposition Xrotation Yrotation Zrotation
										JOINT mixamorig:RightHandPinky3
										{
											OFFSET -2.099983 0.000000 -0.005739
											CHANNELS 6 Xposition Yposition Zposition Xrotation Yrotation Zrotation
											JOINT mixamorig:RightHandPinky4
											{
												OFFSET -2.115768 -0.000031 -0.003680
												CHANNELS 6 Xposition Yposition Zposition Xrotation Yrotation Zrotation
												End Site
												{
													OFFSET -211.577087 0.000000 -0.350686
												}
											}
										}
									}
								}
							}
						}
					}
				}
				JOINT mixamorig:LeftShoulder
				{
					OFFSET 4.570447 11.014725 -2.160855
					CHANNELS 6 Xposition Yposition Zposition Xrotation Yrotation Zrotation
					JOINT mixamorig:LeftArm
					{
						OFFSET 10.592371 -0.524597 -2.232119
						CHANNELS 6 Xposition Yposition Zposition Xrotation Yrotation Zrotation
						JOINT mixamorig:LeftForeArm
						{
							OFFSET 27.841532 -0.000031 0.000026
							CHANNELS 6 Xposition Yposition Zposition Xrotation Yrotation Zrotation
							JOINT mixamorig:LeftHand
							{
								OFFSET 28.328846 -0.000061 0.000022
								CHANNELS 6 Xposition Yposition Zposition Xrotation Yrotation Zrotation
								JOINT mixamorig:LeftHandThumb1
								{
									OFFSET 2.466141 -1.576172 2.681732
									CHANNELS 6 Xposition Yposition Zposition Xrotation Yrotation Zrotation
									JOINT mixamorig:LeftHandThumb2
									{
										OFFSET 3.217812 -1.872070 1.916482
										CHANNELS 6 Xposition Yposition Zposition Xrotation Yrotation Zrotation
										JOINT mixamorig:LeftHandThumb3
										{
											OFFSET 2.656029 -1.528778 1.514513
											CHANNELS 6 Xposition Yposition Zposition Xrotation Yrotation Zrotation
											JOINT mixamorig:LeftHandThumb4
											{
												OFFSET 2.020889 -1.154053 1.115139
												CHANNELS 6 Xposition Yposition Zposition Xrotation Yrotation Zrotation
												End Site
												{
													OFFSET 190.885437 -115.081749 130.048782
												}
											}
										}
									}
								}
								JOINT mixamorig:LeftHandIndex1
								{
									OFFSET 9.109314 -0.518021 2.259871
									CHANNELS 6 Xposition Yposition Zposition Xrotation Yrotation Zrotation
									JOINT mixamorig:LeftHandIndex2
									{
										OFFSET 3.699989 0.000000 -0.000322
										CHANNELS 6 Xposition Yposition Zposition Xrotation Yrotation Zrotation
										JOINT mixamorig:LeftHandIndex3
										{
											OFFSET 2.850006 0.000000 0.000352
											CHANNELS 6 Xposition Yposition Zposition Xrotation Yrotation Zrotation
											JOINT mixamorig:LeftHandIndex4
											{
												OFFSET 2.774864 -0.000031 -0.000027
												CHANNELS 6 Xposition Yposition Zposition Xrotation Yrotation Zrotation
												End Site
												{
													OFFSET 277.486267 0.000000 -0.009857
												}
											}
										}
									}
								}
								JOINT mixamorig:LeftHandMiddle1
								{
									OFFSET 9.533394 0.000061 0.000044
									CHANNELS 6 Xposition Yposition Zposition Xrotation Yrotation Zrotation
									JOINT mixamorig:LeftHandMiddle2
									{
										OFFSET 3.699989 -0.000015 -0.000231
										CHANNELS 6 Xposition Yposition Zposition Xrotation Yrotation Zrotation
										JOINT mixamorig:LeftHandMiddle3
										{
											OFFSET 2.949997 -0.000015 -0.000059
											CHANNELS 6 Xposition Yposition Zposition Xrotation Yrotation Zrotation
											JOINT mixamorig:LeftHandMiddle4
											{
												OFFSET 2.952896 0.000031 0.000063
												CHANNELS 6 Xposition Yposition Zposition Xrotation Yrotation Zrotation
												End Site
												{
													OFFSET 295.289337 0.000000 0.022810
												}
											}
										}
									}
								}
								JOINT mixamorig:LeftHandRing1
								{
									OFFSET 9.104523 -0.042999 -1.865074
									CHANNELS 6 Xposition Yposition Zposition Xrotation Yrotation Zrotation
									JOINT mixamorig:LeftHandRing2
									{
										OFFSET 3.150009 -0.000031 0.000043
										CHANNELS 6 Xposition Yposition Zposition Xrotation Yrotation Zrotation
										JOINT mixamorig:LeftHandRing3
										{
											OFFSET 2.949982 -0.000015 0.000040
											CHANNELS 6 Xposition Yposition Zposition Xrotation Yrotation Zrotation
											JOINT mixamorig:LeftHandRing4
											{
												OFFSET 2.644348 0.000000 0.000057
												CHANNELS 6 Xposition Yposition Zposition Xrotation Yrotation Zrotation
												End Site
												{
													OFFSET 264.434631 0.000000 0.012105
												}
											}
										}
									}
								}
								JOINT mixamorig:LeftHandPinky1
								{
									OFFSET 8.077789 -0.486847 -3.806259
									CHANNELS 6 Xposition Yposition Zposition Xrotation Yrotation Zrotation
									JOINT mixamorig:LeftHandPinky2
									{
										OFFSET 3.599953 0.000031 0.014727
										CHANNELS 6 Xposition Yposition Zposition Xrotation Yrotation Zrotation
										JOINT mixamorig:LeftHandPinky3
										{
											OFFSET 2.100021 0.000015 0.007705
											CHANNELS 6 Xposition Yposition Zposition Xrotation Yrotation Zrotation
											JOINT mixamorig:LeftHandPinky4
											{
												OFFSET 2.125504 0.000031 0.007517
												CHANNELS 6 Xposition Yposition Zposition Xrotation Yrotation Zrotation
												End Site
												{
													OFFSET 212.550781 0.000000 0.625752
												}
											}
										}
									}
								}
							}
						}
					}
				}
			}
		}
	}
	JOINT mixamorig:RightUpLeg
	{
		OFFSET -8.207787 -6.751648 -1.599560
		CHANNELS 6 Xposition Yposition Zposition Xrotation Yrotation Zrotation
		JOINT mixamorig:RightLeg
		{
			OFFSET -0.000002 -44.370117 0.345942
			CHANNELS 6 Xposition Yposition Zposition Xrotation Yrotation Zrotation
			JOINT mixamorig:RightFoot
			{
				OFFSET 0.000003 -44.423679 -3.043532
				CHANNELS 6 Xposition Yposition Zposition Xrotation Yrotation Zrotation
				JOINT mixamorig:RightToeBase
				{
					OFFSET -0.000002 -8.728671 10.710558
					CHANNELS 6 Xposition Yposition Zposition Xrotation Yrotation Zrotation
					JOINT mixamorig:RightToe_End
					{
						OFFSET -0.000001 -0.000679 9.278119
						CHANNELS 6 Xposition Yposition Zposition Xrotation Yrotation Zrotation
						End Site
						{
							OFFSET 0.000000 -0.067690 927.812134
						}
					}
				}
			}
		}
	}
	JOINT mixamorig:LeftUpLeg
	{
		OFFSET 8.207793 -6.751686 -1.599556
		CHANNELS 6 Xposition Yposition Zposition Xrotation Yrotation Zrotation
		JOINT mixamorig:LeftLeg
		{
			OFFSET -0.000004 -44.370014 0.346954
			CHANNELS 6 Xposition Yposition Zposition Xrotation Yrotation Zrotation
			JOINT mixamorig:LeftFoot
			{
				OFFSET -0.000001 -44.423672 -3.044401
				CHANNELS 6 Xposition Yposition Zposition Xrotation Yrotation Zrotation
				JOINT mixamorig:LeftToeBase
				{
					OFFSET -0.000002 -8.728669 10.710558
					CHANNELS 6 Xposition Yposition Zposition Xrotation Yrotation Zrotation
					JOINT mixamorig:LeftToe_End
					{
						OFFSET -0.000003 -0.000679 9.278133
						CHANNELS 6 Xposition Yposition Zposition Xrotation Yrotation Zrotation
						End Site
						{
							OFFSET 0.000000 -0.068021 927.813477
						}
					}
				}
			}
		}
	}
}
MOTION
Frames: 3
Frame Time: 0.033333
0.000006 104.270477 1.554256 0.000010 0.000003 -0.000113 -0.000005 10.181587 0.131522 0.000001 -0.000003 0.000084 -0.000000 9.893967 -1.470711 0.000001 0.000000 -0.000000 -0.000000 9.220802 -1.370642 0.000000 -0.000000 -0.000000 0.000001 16.740433 -2.049030 0.000000 -0.000000 -0.000000 0.000000 9.617859 1.685014 0.000000 0.000000 0.000000 0.000002 22.037384 7.501101 0.000000 -0.000000 0.000000 -4.569968 11.014880 -2.160881 0.000008 0.000001 -0.000038 -10.592873 -0.524777 -2.231880 69.106454 35.647597 -24.969669 -27.841532 -0.000001 0.000559 -54.799666 115.286408 78.576381 -28.328823 0.000008 0.000028 -0.000321 -0.000045 0.000008 -2.464400 -1.573914 2.682362 -30.349047 -149.209253 23.715740 -3.215245 -1.872490 1.924611 148.483709 34.542083 34.391485 -2.654961 -1.527895 1.513074 149.400853 26.848372 -33.607662 -2.018829 -1.152018 1.108064 -0.000004 0.000000 -0.000000 -9.108373 -0.517577 2.260185 107.907474 17.451753 -23.881966 -3.700085 0.000302 0.001556 104.967741 14.499378 -18.784487 -2.850070 0.000370 -0.000217 104.430464 11.127335 -14.322168 -2.772177 -0.000001 -0.000021 0.000001 0.000000 -0.000001 -9.532599 0.000247 0.000304 105.874708 18.940388 -25.100286 -3.700074 0.000301 0.004034 105.974934 13.480175 -17.691438 -2.950049 0.000330 -0.001750 109.272966 11.403703 -16.006384 -2.946604 -0.000015 -0.000153 -0.000001 0.000002 0.000001 -9.103719 -0.042778 -1.864812 105.985036 20.763714 -27.262270 -3.379331 0.000321 -0.000750 105.885889 10.734071 -14.207231 -2.889741 0.000335 0.000723 112.077544 6.663461 -9.947667 -2.638815 0.000014 0.000932 0.000003 -0.000000 -0.000001 -8.076777 -0.486418 -3.805952 100.243244 22.083182 -26.106685 -3.600048 0.000270 -0.003445 103.049605 10.666121 -12.939963 -2.100009 0.000318 -0.005425 106.530583 5.203469 -6.675890 -2.115769 -0.000056 -0.003680 -0.000002 0.000000 -0.000003 4.570446 11.014691 -2.160851 -0.000018 0.000010 -0.000021 10.592485 -0.524576 -2.232365 39.947809 -64.191907 25.683376 27.841705 -0.000088 -0.000069 59.490838 -113.777940 82.451045 28.328829 -0.000027 0.000025 0.000019 -0.000090 0.000001 2.466150 -1.576185 2.681854 115.285151 137.960027 -157.528396 3.217804 -1.872026 1.916532 265.359516 51.082421 45.195724 2.655992 -1.528810 1.514610 -122.571815 52.262005 68.596970 2.020872 -1.154083 1.115144 0.000003 0.000004 0.000004 9.109232 -0.517708 2.260075 -137.170143 -11.262693 -28.208051 3.699910 0.000316 -0.000119 -135.392162 -11.879996 -28.487107 2.849915 0.000332 0.000562 -137.575692 -9.301293 -23.673116 2.774876 -0.000017 -0.000012 0.000000 -0.000002 -0.000002 9.533328 0.000361 0.000269 -132.765149 -9.883708 -22.359828 3.699909 0.000310 -0.000019 -132.699074 -10.582425 -23.877670 2.949959 0.000317 0.000160 -132.451425 -7.915921 -17.856829 2.952862 -0.000020 0.000071 0.000001 -0.000001 0.000001 9.104479 -0.042716 -1.864839 -128.670942 -8.200247 -16.972571 3.149964 0.000326 0.000275 -129.897876 -7.207193 -15.350587 2.949958 0.000321 0.000256 -128.004247 -4.721727 -9.667074 2.644312 0.000030 0.000041 -0.000002 0.000002 -0.000001 8.077742 -0.486578 -3.806006 -121.997861 -6.613691 -12.618062 3.599918 0.000336 0.014956 -123.761525 -2.972892 -6.293411 2.099989 0.000306 0.007948 -123.932253 -1.270936 -3.121690 2.125497 -0.000013 0.007519 0.000003 0.000000 -0.000000 -8.207786 -6.751667 -1.599560 -0.077001 -0.000003 0.000080 -0.000002 -44.370110 0.345938 0.153719 -0.000000 -0.000000 0.000000 -44.423679 -3.043532 -0.076700 0.000000 -0.000002 -0.000006 -8.728667 10.710559 -0.000009 -0.000000 -0.000000 -0.000001 -0.000679 9.278123 0.000000 -0.000000 -0.000000 8.207792 -6.751710 -1.599556 -0.074518 -0.000003 0.000081 -0.000002 -44.370014 0.346960 0.148822 0.000002 0.000000 -0.000001 -44.423664 -3.044403 -0.074314 0.000000 -0.000002 -0.000004 -8.728671 10.710558 0.000007 -0.000000 -0.000000 0.000000 -0.000680 9.278137 -0.000000 0.000000 -0.000001 
0.000006 104.270477 1.554256 0.000010 0.000003 -0.000113 -0.000005 10.181587 0.131522 0.000001 -0.000003 0.000084 -0.000000 9.893967 -1.470711 0.000001 0.000000 -0.000000 -0.000000 9.220802 -1.370642 0.000000 -0.000000 -0.000000 0.000001 16.740433 -2.049030 0.000000 -0.000000 -0.000000 0.000000 9.617859 1.685014 0.000000 0.000000 0.000000 0.000002 22.037384 7.501101 0.000000 -0.000000 0.000000 -4.569968 11.014880 -2.160881 0.000008 0.000001 -0.000038 -10.592870 -0.524775 -2.231881 69.212424 36.504168 -25.639878 -27.841518 0.000005 0.000537 -54.586083 114.350692 77.312243 -28.328810 0.000007 0.000027 -0.000324 -0.000043 0.000006 -2.464395 -1.573920 2.682359 -31.743321 -150.012251 21.507757 -3.215240 -1.872506 1.924608 149.224443 34.472747 31.873204 -2.654940 -1.527848 1.513064 149.594407 26.809983 -33.652970 -2.018833 -1.152002 1.108063 -0.000004 0.000002 0.000002 -9.108389 -0.517581 2.260173 107.905985 17.819786 -24.376853 -3.700082 0.000309 0.001559 104.822483 14.850865 -19.187571 -2.850080 0.000369 -0.000225 104.028316 11.443110 -14.621787 -2.772170 -0.000016 -0.000021 -0.000000 -0.000002 -0.000000 -9.532597 0.000243 0.000301 105.486589 19.121989 -25.164054 -3.700076 0.000316 0.004026 105.670506 13.823374 -18.043200 -2.950048 0.000336 -0.001743 108.981071 11.717443 -16.356812 -2.946616 0.000002 -0.000157 -0.000000 0.000002 -0.000000 -9.103722 -0.042777 -1.864805 105.176444 20.979360 -27.155756 -3.379354 0.000326 -0.000744 105.582369 10.996883 -14.473970 -2.889741 0.000342 0.000712 111.914371 6.887424 -10.247656 -2.638808 -0.000028 0.000935 -0.000004 -0.000002 -0.000000 -8.076769 -0.486417 -3.805952 99.627298 22.295414 -26.080299 -3.600075 0.000267 -0.003441 103.098208 10.836340 -13.163515 -2.100031 0.000309 -0.005410 106.516117 5.408897 -6.947975 -2.115774 -0.000027 -0.003681 -0.000001 -0.000001 -0.000007 4.570446 11.014691 -2.160851 -0.000018 0.000010 -0.000021 10.592489 -0.524549 -2.232359 41.145336 -64.274949 26.534634 27.841696 -0.000101 -0.000062 60.458075 -113.233806 82.970604 28.328833 -0.000027 0.000020 0.000019 -0.000090 -0.000000 2.466127 -1.576214 2.681844 121.740704 137.736461 -161.301706 3.217800 -1.872032 1.916527 273.600712 50.007073 38.994660 2.656024 -1.528805 1.514601 -110.385453 51.654054 58.273665 2.020887 -1.154060 1.115124 0.000005 0.000004 0.000004 9.109234 -0.517731 2.260072 -134.860678 -9.969196 -23.684847 3.699926 0.000284 -0.000127 -133.799950 -10.680754 -24.745651 2.849935 0.000350 0.000561 -137.322879 -8.442493 -21.395767 2.774878 -0.000018 -0.000026 -0.000000 0.000000 0.000001 9.533337 0.000342 0.000257 -131.070319 -9.092076 -19.813139 3.699912 0.000310 -0.000015 -131.795590 -10.180385 -22.518119 2.949964 0.000308 0.000125 -133.145276 -7.292533 -16.737367 2.952871 -0.000018 0.000068 0.000002 -0.000001 -0.000002 9.104484 -0.042735 -1.864848 -126.689532 -7.854461 -15.577805 3.149948 0.000331 0.000274 -129.349918 -7.588467 -15.957571 2.949947 0.000315 0.000252 -129.144138 -4.929513 -10.349396 2.644319 0.000044 0.000052 -0.000002 -0.000001 -0.000000 8.077743 -0.486625 -3.806018 -119.368634 -6.239961 -11.342012 3.599931 0.000327 0.014971 -122.163425 -2.456666 -5.164516 2.100002 0.000299 0.007927 -124.519403 -0.643387 -1.977916 2.125490 -0.000049 0.007510 -0.000001 0.000000 0.000002 -8.207786 -6.751667 -1.599560 -0.077001 -0.000003 0.000080 -0.000002 -44.370110 0.345938 0.153719 -0.000000 -0.000000 0.000000 -44.423679 -3.043532 -0.076700 0.000000 -0.000002 -0.000006 -8.728667 10.710559 -0.000009 -0.000000 -0.000000 -0.000001 -0.000679 9.278123 0.000000 -0.000000 -0.000000 8.207792 -6.751710 -1.599556 -0.074518 -0.000003 0.000081 -0.000002 -44.370014 0.346960 0.148822 0.000002 0.000000 -0.000001 -44.423664 -3.044403 -0.074314 0.000000 -0.000002 -0.000004 -8.728671 10.710558 0.000007 -0.000000 -0.000000 0.000000 -0.000680 9.278137 -0.000000 0.000000 -0.000001 
0.000006 104.270477 1.554256 0.000010 0.000003 -0.000113 -0.000005 10.181587 0.131522 0.000001 -0.000003 0.000084 -0.000000 9.893967 -1.470711 0.000001 0.000000 -0.000000 -0.000000 9.220802 -1.370642 0.000000 -0.000000 -0.000000 0.000001 16.740433 -2.049030 0.000000 -0.000000 -0.000000 0.000000 9.617859 1.685014 0.000000 0.000000 0.000000 0.000002 22.037384 7.501101 0.000000 -0.000000 0.000000 -4.569968 11.014880 -2.160881 0.000008 0.000001 -0.000038 -10.592868 -0.524782 -2.231895 69.189700 35.069651 -24.588416 -27.841522 0.000014 0.000568 -54.462617 114.931812 77.788505 -28.328814 0.000023 0.000033 -0.000322 -0.000045 0.000010 -2.464395 -1.573925 2.682364 -32.946452 -150.346643 19.367411 -3.215237 -1.872499 1.924619 148.226115 34.402491 34.037613 -2.654958 -1.527887 1.513078 149.414527 26.966048 -32.554061 -2.018826 -1.151996 1.108049 -0.000003 -0.000001 0.000002 -9.108382 -0.517566 2.260166 108.092293 17.333589 -23.801099 -3.700065 0.000302 0.001546 104.843281 14.652697 -18.940062 -2.850101 0.000363 -0.000206 104.162707 11.312963 -14.490805 -2.772164 -0.000015 -0.000018 0.000001 0.000001 0.000000 -9.532581 0.000252 0.000294 105.511540 18.567943 -24.459578 -3.700078 0.000315 0.004050 106.006742 13.501745 -17.729808 -2.950061 0.000342 -0.001740 109.352756 11.501403 -16.166204 -2.946626 -0.000000 -0.000155 0.000003 -0.000001 0.000001 -9.103697 -0.042770 -1.864815 104.854510 20.246889 -26.072821 -3.379321 0.000313 -0.000737 105.869886 10.586833 -14.009437 -2.889758 0.000336 0.000707 112.268919 6.738391 -10.094709 -2.638818 -0.000013 0.000941 0.000002 -0.000001 0.000001 -8.076757 -0.486399 -3.805963 99.198908 21.545299 -25.021546 -3.600055 0.000273 -0.003445 102.867321 10.215583 -12.338166 -2.100016 0.000327 -0.005420 106.223887 5.012821 -6.386027 -2.115774 -0.000043 -0.003683 -0.000001 -0.000000 -0.000004 4.570446 11.014691 -2.160851 -0.000018 0.000010 -0.000021 10.592487 -0.524549 -2.232362 42.997298 -63.007211 27.143863 27.841698 -0.000090 -0.000060 63.371451 -112.760898 85.745860 28.328842 0.000001 0.000039 0.000022 -0.000086 0.000002 2.466127 -1.576183 2.681853 121.813460 137.916382 -161.357332 3.217819 -1.872010 1.916522 281.952012 41.952166 31.315164 2.656046 -1.528761 1.514603 -83.997817 34.681621 33.527852 2.020891 -1.154083 1.115146 0.000001 0.000002 0.000003 9.109238 -0.517692 2.260087 -132.619925 -10.915628 -24.554272 3.699916 0.000266 -0.000110 -130.589337 -12.748741 -27.317589 2.849929 0.000328 0.000577 -132.434376 -10.799518 -24.209918 2.774884 -0.000014 -0.000032 -0.000001 -0.000000 -0.000005 9.533330 0.000373 0.000270 -130.622286 -10.058032 -21.661692 3.699911 0.000295 0.000003 -129.131898 -12.794968 -26.529614 2.949948 0.000295 0.000149 -128.160017 -9.657526 -19.725212 2.952869 -0.000020 0.000079 -0.000000 -0.000001 0.000002 9.104470 -0.042693 -1.864836 -126.411406 -9.248441 -18.201086 3.149956 0.000328 0.000287 -127.135843 -8.654226 -17.312071 2.949950 0.000310 0.000263 -125.856016 -5.993923 -11.699669 2.644319 0.000044 0.000043 -0.000003 0.000000 -0.000000 8.077740 -0.486590 -3.806014 -120.541870 -7.743327 -14.193162 3.599933 0.000313 0.014968 -120.063852 -2.585572 -5.170687 2.099984 0.000304 0.007938 -119.727410 -1.206587 -2.754687 2.125490 0.000000 0.007519 0.000002 0.000000 0.000002 -8.207786 -6.751667 -1.599560 -0.077001 -0.000003 0.000080 -0.000002 -44.370110 0.345938 0.153719 -0.000000 -0.000000 0.000000 -44.423679 -3.043532 -0.076700 0.000000 -0.000002 -0.000006 -8.728667 10.710559 -0.000009 -0.000000 -0.000000 -0.000001 -0.000679 9.278123 0.000000 -0.000000 -0.000000 8.207792 -6.751710 -1.599556 -0.074518 -0.000003 0.000081 -0.000002 -44.370014 0.346960 0.148822 0.000002 0.000000 -0.000001 -44.423664 -3.044403 -0.074314 0.000000 -0.000002 -0.000004 -8.728671 10.710558 0.000007 -0.000000 -0.000000 0.000000 -0.000680 9.278137 -0.000000 0.000000 -0.000001 
